<mxfile host="Electron" modified="2023-11-26T17:14:18.157Z" agent="Mozilla/5.0 (Windows NT 10.0; Win64; x64) AppleWebKit/537.36 (KHTML, like Gecko) draw.io/22.1.2 Chrome/114.0.5735.289 Electron/25.9.4 Safari/537.36" etag="Lc2L45Uewy5cvhugooqf" version="22.1.2" type="device">
  <diagram name="Página-1" id="bBGDQy-hYXjX867Ou2Yc">
    <mxGraphModel dx="1036" dy="606" grid="1" gridSize="10" guides="1" tooltips="1" connect="1" arrows="1" fold="1" page="1" pageScale="1.2" pageWidth="827" pageHeight="1169" math="0" shadow="0">
      <root>
        <mxCell id="0" />
        <mxCell id="1" parent="0" />
        <mxCell id="1OLOJ9Kabhmj-WydWykV-6" value="Usuarios" style="rounded=0;whiteSpace=wrap;html=1;" parent="1" vertex="1">
          <mxGeometry x="180" y="210" width="120" height="60" as="geometry" />
        </mxCell>
        <mxCell id="1OLOJ9Kabhmj-WydWykV-7" value="Publicaciones" style="rounded=0;whiteSpace=wrap;html=1;" parent="1" vertex="1">
          <mxGeometry x="650" y="210" width="120" height="60" as="geometry" />
        </mxCell>
        <mxCell id="1OLOJ9Kabhmj-WydWykV-8" value="Fotos" style="rounded=0;whiteSpace=wrap;html=1;" parent="1" vertex="1">
          <mxGeometry x="530" y="405" width="120" height="60" as="geometry" />
        </mxCell>
        <mxCell id="1OLOJ9Kabhmj-WydWykV-78" style="edgeStyle=orthogonalEdgeStyle;rounded=0;orthogonalLoop=1;jettySize=auto;html=1;exitX=1;exitY=0.5;exitDx=0;exitDy=0;entryX=0;entryY=0.5;entryDx=0;entryDy=0;endArrow=none;endFill=0;" parent="1" source="1OLOJ9Kabhmj-WydWykV-10" target="1OLOJ9Kabhmj-WydWykV-6" edge="1">
          <mxGeometry relative="1" as="geometry">
            <Array as="points">
              <mxPoint x="160" y="195" />
              <mxPoint x="160" y="240" />
            </Array>
          </mxGeometry>
        </mxCell>
        <mxCell id="1OLOJ9Kabhmj-WydWykV-10" value="#ID_Usuario" style="ellipse;whiteSpace=wrap;html=1;" parent="1" vertex="1">
          <mxGeometry x="70" y="180" width="80" height="30" as="geometry" />
        </mxCell>
        <mxCell id="1OLOJ9Kabhmj-WydWykV-11" value="Nombre y apellidos" style="ellipse;whiteSpace=wrap;html=1;" parent="1" vertex="1">
          <mxGeometry x="110" y="130" width="80" height="30" as="geometry" />
        </mxCell>
        <mxCell id="1OLOJ9Kabhmj-WydWykV-80" style="edgeStyle=orthogonalEdgeStyle;rounded=0;orthogonalLoop=1;jettySize=auto;html=1;exitX=0.5;exitY=1;exitDx=0;exitDy=0;entryX=0.5;entryY=0;entryDx=0;entryDy=0;endArrow=none;endFill=0;" parent="1" source="1OLOJ9Kabhmj-WydWykV-12" target="1OLOJ9Kabhmj-WydWykV-6" edge="1">
          <mxGeometry relative="1" as="geometry" />
        </mxCell>
        <mxCell id="1OLOJ9Kabhmj-WydWykV-12" value="Correo electrónico" style="ellipse;whiteSpace=wrap;html=1;" parent="1" vertex="1">
          <mxGeometry x="200" y="130" width="80" height="30" as="geometry" />
        </mxCell>
        <mxCell id="1OLOJ9Kabhmj-WydWykV-81" style="edgeStyle=orthogonalEdgeStyle;rounded=0;orthogonalLoop=1;jettySize=auto;html=1;exitX=0.5;exitY=1;exitDx=0;exitDy=0;entryX=0.75;entryY=0;entryDx=0;entryDy=0;endArrow=none;endFill=0;" parent="1" source="1OLOJ9Kabhmj-WydWykV-13" target="1OLOJ9Kabhmj-WydWykV-6" edge="1">
          <mxGeometry relative="1" as="geometry" />
        </mxCell>
        <mxCell id="1OLOJ9Kabhmj-WydWykV-13" value="Fecha de registro" style="ellipse;whiteSpace=wrap;html=1;" parent="1" vertex="1">
          <mxGeometry x="290" y="130" width="80" height="30" as="geometry" />
        </mxCell>
        <mxCell id="1OLOJ9Kabhmj-WydWykV-77" style="edgeStyle=orthogonalEdgeStyle;rounded=0;orthogonalLoop=1;jettySize=auto;html=1;exitX=1;exitY=0.5;exitDx=0;exitDy=0;entryX=0;entryY=0.75;entryDx=0;entryDy=0;endArrow=none;endFill=0;" parent="1" source="1OLOJ9Kabhmj-WydWykV-14" target="1OLOJ9Kabhmj-WydWykV-6" edge="1">
          <mxGeometry relative="1" as="geometry">
            <Array as="points">
              <mxPoint x="150" y="255" />
            </Array>
          </mxGeometry>
        </mxCell>
        <mxCell id="1OLOJ9Kabhmj-WydWykV-14" value="Configuración de privacidad" style="ellipse;whiteSpace=wrap;html=1;" parent="1" vertex="1">
          <mxGeometry x="70" y="220" width="80" height="40" as="geometry" />
        </mxCell>
        <mxCell id="1OLOJ9Kabhmj-WydWykV-15" value="#ID_Publicación" style="ellipse;whiteSpace=wrap;html=1;" parent="1" vertex="1">
          <mxGeometry x="630" y="140" width="90" height="30" as="geometry" />
        </mxCell>
        <mxCell id="1OLOJ9Kabhmj-WydWykV-83" style="edgeStyle=orthogonalEdgeStyle;rounded=0;orthogonalLoop=1;jettySize=auto;html=1;exitX=0.5;exitY=1;exitDx=0;exitDy=0;entryX=0.5;entryY=0;entryDx=0;entryDy=0;endArrow=none;endFill=0;" parent="1" source="1OLOJ9Kabhmj-WydWykV-16" target="1OLOJ9Kabhmj-WydWykV-7" edge="1">
          <mxGeometry relative="1" as="geometry" />
        </mxCell>
        <mxCell id="1OLOJ9Kabhmj-WydWykV-16" value="Contenido" style="ellipse;whiteSpace=wrap;html=1;" parent="1" vertex="1">
          <mxGeometry x="730" y="140" width="80" height="30" as="geometry" />
        </mxCell>
        <mxCell id="1OLOJ9Kabhmj-WydWykV-84" style="edgeStyle=orthogonalEdgeStyle;rounded=0;orthogonalLoop=1;jettySize=auto;html=1;exitX=0;exitY=0.5;exitDx=0;exitDy=0;entryX=1;entryY=0.25;entryDx=0;entryDy=0;endArrow=none;endFill=0;" parent="1" source="1OLOJ9Kabhmj-WydWykV-17" target="1OLOJ9Kabhmj-WydWykV-7" edge="1">
          <mxGeometry relative="1" as="geometry">
            <Array as="points">
              <mxPoint x="790" y="200" />
              <mxPoint x="790" y="225" />
            </Array>
          </mxGeometry>
        </mxCell>
        <mxCell id="1OLOJ9Kabhmj-WydWykV-17" value="Fecha y hora publicación" style="ellipse;whiteSpace=wrap;html=1;" parent="1" vertex="1">
          <mxGeometry x="825" y="180" width="80" height="40" as="geometry" />
        </mxCell>
        <mxCell id="1OLOJ9Kabhmj-WydWykV-87" style="edgeStyle=orthogonalEdgeStyle;rounded=0;orthogonalLoop=1;jettySize=auto;html=1;exitX=0;exitY=0.5;exitDx=0;exitDy=0;entryX=1;entryY=0.75;entryDx=0;entryDy=0;endArrow=none;endFill=0;" parent="1" source="1OLOJ9Kabhmj-WydWykV-18" target="1OLOJ9Kabhmj-WydWykV-7" edge="1">
          <mxGeometry relative="1" as="geometry">
            <Array as="points">
              <mxPoint x="770" y="245" />
            </Array>
          </mxGeometry>
        </mxCell>
        <mxCell id="1OLOJ9Kabhmj-WydWykV-18" value="Conf de visibilidad" style="ellipse;whiteSpace=wrap;html=1;" parent="1" vertex="1">
          <mxGeometry x="825" y="230" width="80" height="30" as="geometry" />
        </mxCell>
        <mxCell id="1OLOJ9Kabhmj-WydWykV-88" style="edgeStyle=orthogonalEdgeStyle;rounded=0;orthogonalLoop=1;jettySize=auto;html=1;exitX=0;exitY=0.5;exitDx=0;exitDy=0;entryX=1;entryY=0.25;entryDx=0;entryDy=0;endArrow=none;endFill=0;" parent="1" source="1OLOJ9Kabhmj-WydWykV-19" target="1OLOJ9Kabhmj-WydWykV-8" edge="1">
          <mxGeometry relative="1" as="geometry" />
        </mxCell>
        <mxCell id="1OLOJ9Kabhmj-WydWykV-19" value="#ID_Foto" style="ellipse;whiteSpace=wrap;html=1;" parent="1" vertex="1">
          <mxGeometry x="675" y="405" width="80" height="30" as="geometry" />
        </mxCell>
        <mxCell id="1OLOJ9Kabhmj-WydWykV-89" style="edgeStyle=orthogonalEdgeStyle;rounded=0;orthogonalLoop=1;jettySize=auto;html=1;exitX=0;exitY=0.5;exitDx=0;exitDy=0;entryX=1;entryY=0.75;entryDx=0;entryDy=0;endArrow=none;endFill=0;" parent="1" source="1OLOJ9Kabhmj-WydWykV-20" target="1OLOJ9Kabhmj-WydWykV-8" edge="1">
          <mxGeometry relative="1" as="geometry">
            <Array as="points">
              <mxPoint x="675" y="450" />
            </Array>
          </mxGeometry>
        </mxCell>
        <mxCell id="1OLOJ9Kabhmj-WydWykV-20" value="URL foto" style="ellipse;whiteSpace=wrap;html=1;" parent="1" vertex="1">
          <mxGeometry x="675" y="445" width="80" height="30" as="geometry" />
        </mxCell>
        <mxCell id="1OLOJ9Kabhmj-WydWykV-91" style="edgeStyle=orthogonalEdgeStyle;rounded=0;orthogonalLoop=1;jettySize=auto;html=1;exitX=0.5;exitY=0;exitDx=0;exitDy=0;entryX=0.25;entryY=1;entryDx=0;entryDy=0;endArrow=none;endFill=0;" parent="1" source="1OLOJ9Kabhmj-WydWykV-21" target="1OLOJ9Kabhmj-WydWykV-8" edge="1">
          <mxGeometry relative="1" as="geometry" />
        </mxCell>
        <mxCell id="1OLOJ9Kabhmj-WydWykV-21" value="Descripción" style="ellipse;whiteSpace=wrap;html=1;" parent="1" vertex="1">
          <mxGeometry x="500" y="490" width="80" height="30" as="geometry" />
        </mxCell>
        <mxCell id="1OLOJ9Kabhmj-WydWykV-90" style="edgeStyle=orthogonalEdgeStyle;rounded=0;orthogonalLoop=1;jettySize=auto;html=1;exitX=0.5;exitY=0;exitDx=0;exitDy=0;entryX=0.75;entryY=1;entryDx=0;entryDy=0;endArrow=none;endFill=0;" parent="1" source="1OLOJ9Kabhmj-WydWykV-22" target="1OLOJ9Kabhmj-WydWykV-8" edge="1">
          <mxGeometry relative="1" as="geometry" />
        </mxCell>
        <mxCell id="1OLOJ9Kabhmj-WydWykV-22" value="Fecha de subida" style="ellipse;whiteSpace=wrap;html=1;" parent="1" vertex="1">
          <mxGeometry x="600" y="490" width="80" height="30" as="geometry" />
        </mxCell>
        <mxCell id="1OLOJ9Kabhmj-WydWykV-100" style="edgeStyle=orthogonalEdgeStyle;rounded=0;orthogonalLoop=1;jettySize=auto;html=1;exitX=0.5;exitY=0;exitDx=0;exitDy=0;entryX=0;entryY=1;entryDx=0;entryDy=0;endArrow=none;endFill=0;" parent="1" target="1OLOJ9Kabhmj-WydWykV-72" edge="1">
          <mxGeometry relative="1" as="geometry">
            <mxPoint x="380" y="340" as="sourcePoint" />
          </mxGeometry>
        </mxCell>
        <mxCell id="1OLOJ9Kabhmj-WydWykV-23" value="#ID_comentario" style="ellipse;whiteSpace=wrap;html=1;" parent="1" vertex="1">
          <mxGeometry x="320" y="340" width="93.5" height="30" as="geometry" />
        </mxCell>
        <mxCell id="1OLOJ9Kabhmj-WydWykV-101" style="edgeStyle=orthogonalEdgeStyle;rounded=0;orthogonalLoop=1;jettySize=auto;html=1;exitX=0.5;exitY=0;exitDx=0;exitDy=0;entryX=0.5;entryY=1;entryDx=0;entryDy=0;endArrow=none;endFill=0;" parent="1" source="1OLOJ9Kabhmj-WydWykV-24" target="1OLOJ9Kabhmj-WydWykV-72" edge="1">
          <mxGeometry relative="1" as="geometry" />
        </mxCell>
        <mxCell id="1OLOJ9Kabhmj-WydWykV-24" value="Texto" style="ellipse;whiteSpace=wrap;html=1;" parent="1" vertex="1">
          <mxGeometry x="420" y="345" width="70" height="25" as="geometry" />
        </mxCell>
        <mxCell id="1OLOJ9Kabhmj-WydWykV-102" style="edgeStyle=orthogonalEdgeStyle;rounded=0;orthogonalLoop=1;jettySize=auto;html=1;exitX=0.5;exitY=0;exitDx=0;exitDy=0;entryX=1;entryY=1;entryDx=0;entryDy=0;endArrow=none;endFill=0;" parent="1" source="1OLOJ9Kabhmj-WydWykV-25" target="1OLOJ9Kabhmj-WydWykV-72" edge="1">
          <mxGeometry relative="1" as="geometry" />
        </mxCell>
        <mxCell id="1OLOJ9Kabhmj-WydWykV-25" value="Fecha y hora" style="ellipse;whiteSpace=wrap;html=1;" parent="1" vertex="1">
          <mxGeometry x="493.25" y="345" width="80" height="25" as="geometry" />
        </mxCell>
        <mxCell id="1OLOJ9Kabhmj-WydWykV-28" style="edgeStyle=orthogonalEdgeStyle;rounded=0;orthogonalLoop=1;jettySize=auto;html=1;exitX=0;exitY=0.5;exitDx=0;exitDy=0;entryX=1;entryY=0.5;entryDx=0;entryDy=0;endArrow=none;endFill=0;" parent="1" source="1OLOJ9Kabhmj-WydWykV-27" target="1OLOJ9Kabhmj-WydWykV-6" edge="1">
          <mxGeometry relative="1" as="geometry" />
        </mxCell>
        <mxCell id="1OLOJ9Kabhmj-WydWykV-29" style="edgeStyle=orthogonalEdgeStyle;rounded=0;orthogonalLoop=1;jettySize=auto;html=1;exitX=1;exitY=0.5;exitDx=0;exitDy=0;entryX=0;entryY=0.5;entryDx=0;entryDy=0;endArrow=none;endFill=0;" parent="1" source="1OLOJ9Kabhmj-WydWykV-27" target="1OLOJ9Kabhmj-WydWykV-7" edge="1">
          <mxGeometry relative="1" as="geometry" />
        </mxCell>
        <mxCell id="1OLOJ9Kabhmj-WydWykV-27" value="Etiquetar" style="shape=rhombus;perimeter=rhombusPerimeter;whiteSpace=wrap;html=1;align=center;" parent="1" vertex="1">
          <mxGeometry x="413.25" y="225" width="90" height="30" as="geometry" />
        </mxCell>
        <mxCell id="1OLOJ9Kabhmj-WydWykV-107" style="edgeStyle=orthogonalEdgeStyle;rounded=0;orthogonalLoop=1;jettySize=auto;html=1;entryX=0.5;entryY=0;entryDx=0;entryDy=0;exitX=1;exitY=0.5;exitDx=0;exitDy=0;endArrow=none;endFill=0;" parent="1" source="1OLOJ9Kabhmj-WydWykV-51" target="1OLOJ9Kabhmj-WydWykV-8" edge="1">
          <mxGeometry relative="1" as="geometry" />
        </mxCell>
        <mxCell id="1OLOJ9Kabhmj-WydWykV-51" value="Tiene" style="shape=rhombus;perimeter=rhombusPerimeter;whiteSpace=wrap;html=1;align=center;" parent="1" vertex="1">
          <mxGeometry x="620" y="307.5" width="80" height="32.5" as="geometry" />
        </mxCell>
        <mxCell id="1OLOJ9Kabhmj-WydWykV-76" style="edgeStyle=orthogonalEdgeStyle;rounded=0;orthogonalLoop=1;jettySize=auto;html=1;entryX=1;entryY=0.25;entryDx=0;entryDy=0;endArrow=none;endFill=0;" parent="1" source="1OLOJ9Kabhmj-WydWykV-60" target="1OLOJ9Kabhmj-WydWykV-6" edge="1">
          <mxGeometry relative="1" as="geometry" />
        </mxCell>
        <mxCell id="1OLOJ9Kabhmj-WydWykV-113" style="edgeStyle=orthogonalEdgeStyle;rounded=0;orthogonalLoop=1;jettySize=auto;html=1;entryX=0;entryY=0.25;entryDx=0;entryDy=0;endArrow=none;endFill=0;" parent="1" source="1OLOJ9Kabhmj-WydWykV-60" target="1OLOJ9Kabhmj-WydWykV-7" edge="1">
          <mxGeometry relative="1" as="geometry" />
        </mxCell>
        <mxCell id="1OLOJ9Kabhmj-WydWykV-60" value="Hacen" style="shape=rhombus;perimeter=rhombusPerimeter;whiteSpace=wrap;html=1;align=center;" parent="1" vertex="1">
          <mxGeometry x="414" y="170" width="90" height="30" as="geometry" />
        </mxCell>
        <mxCell id="1OLOJ9Kabhmj-WydWykV-114" style="edgeStyle=orthogonalEdgeStyle;rounded=0;orthogonalLoop=1;jettySize=auto;html=1;exitX=1;exitY=0.5;exitDx=0;exitDy=0;entryX=0.75;entryY=1;entryDx=0;entryDy=0;endArrow=none;endFill=0;" parent="1" source="1OLOJ9Kabhmj-WydWykV-67" target="1OLOJ9Kabhmj-WydWykV-6" edge="1">
          <mxGeometry relative="1" as="geometry" />
        </mxCell>
        <mxCell id="1OLOJ9Kabhmj-WydWykV-134" style="edgeStyle=orthogonalEdgeStyle;rounded=0;orthogonalLoop=1;jettySize=auto;html=1;exitX=0;exitY=0.5;exitDx=0;exitDy=0;entryX=0.25;entryY=1;entryDx=0;entryDy=0;endArrow=none;endFill=0;" parent="1" source="1OLOJ9Kabhmj-WydWykV-67" target="1OLOJ9Kabhmj-WydWykV-6" edge="1">
          <mxGeometry relative="1" as="geometry" />
        </mxCell>
        <mxCell id="1OLOJ9Kabhmj-WydWykV-67" value="Amigos" style="shape=rhombus;perimeter=rhombusPerimeter;whiteSpace=wrap;html=1;align=center;" parent="1" vertex="1">
          <mxGeometry x="195" y="312.5" width="90" height="27.5" as="geometry" />
        </mxCell>
        <mxCell id="1OLOJ9Kabhmj-WydWykV-92" style="edgeStyle=orthogonalEdgeStyle;rounded=0;orthogonalLoop=1;jettySize=auto;html=1;exitX=0.5;exitY=0;exitDx=0;exitDy=0;entryX=0.5;entryY=1;entryDx=0;entryDy=0;endArrow=none;endFill=0;" parent="1" source="1OLOJ9Kabhmj-WydWykV-68" target="1OLOJ9Kabhmj-WydWykV-67" edge="1">
          <mxGeometry relative="1" as="geometry" />
        </mxCell>
        <mxCell id="1OLOJ9Kabhmj-WydWykV-68" value="#Fecha de amistad" style="ellipse;whiteSpace=wrap;html=1;" parent="1" vertex="1">
          <mxGeometry x="200" y="375" width="80" height="30" as="geometry" />
        </mxCell>
        <mxCell id="1OLOJ9Kabhmj-WydWykV-74" style="edgeStyle=orthogonalEdgeStyle;rounded=0;orthogonalLoop=1;jettySize=auto;html=1;exitX=0;exitY=0.5;exitDx=0;exitDy=0;entryX=1;entryY=0.75;entryDx=0;entryDy=0;endArrow=none;endFill=0;" parent="1" source="1OLOJ9Kabhmj-WydWykV-72" target="1OLOJ9Kabhmj-WydWykV-6" edge="1">
          <mxGeometry relative="1" as="geometry" />
        </mxCell>
        <mxCell id="1OLOJ9Kabhmj-WydWykV-112" style="edgeStyle=orthogonalEdgeStyle;rounded=0;orthogonalLoop=1;jettySize=auto;html=1;exitX=1;exitY=0.5;exitDx=0;exitDy=0;entryX=0;entryY=0.75;entryDx=0;entryDy=0;endArrow=none;endFill=0;" parent="1" source="1OLOJ9Kabhmj-WydWykV-72" target="1OLOJ9Kabhmj-WydWykV-7" edge="1">
          <mxGeometry relative="1" as="geometry" />
        </mxCell>
        <mxCell id="1OLOJ9Kabhmj-WydWykV-72" value="Comentar" style="shape=rhombus;perimeter=rhombusPerimeter;whiteSpace=wrap;html=1;align=center;" parent="1" vertex="1">
          <mxGeometry x="413.25" y="277.5" width="90" height="30" as="geometry" />
        </mxCell>
        <mxCell id="1OLOJ9Kabhmj-WydWykV-79" style="edgeStyle=orthogonalEdgeStyle;rounded=0;orthogonalLoop=1;jettySize=auto;html=1;exitX=0.5;exitY=1;exitDx=0;exitDy=0;entryX=0.167;entryY=0;entryDx=0;entryDy=0;entryPerimeter=0;endArrow=none;endFill=0;" parent="1" source="1OLOJ9Kabhmj-WydWykV-11" target="1OLOJ9Kabhmj-WydWykV-6" edge="1">
          <mxGeometry relative="1" as="geometry" />
        </mxCell>
        <mxCell id="1OLOJ9Kabhmj-WydWykV-103" value="Autor" style="shape=rhombus;perimeter=rhombusPerimeter;whiteSpace=wrap;html=1;align=center;" parent="1" vertex="1">
          <mxGeometry x="770" y="310" width="90" height="30" as="geometry" />
        </mxCell>
        <mxCell id="1OLOJ9Kabhmj-WydWykV-105" style="edgeStyle=orthogonalEdgeStyle;rounded=0;orthogonalLoop=1;jettySize=auto;html=1;exitX=0;exitY=0.5;exitDx=0;exitDy=0;endArrow=none;endFill=0;" parent="1" source="1OLOJ9Kabhmj-WydWykV-103" edge="1">
          <mxGeometry relative="1" as="geometry">
            <mxPoint x="740" y="270" as="targetPoint" />
          </mxGeometry>
        </mxCell>
        <mxCell id="1OLOJ9Kabhmj-WydWykV-106" style="edgeStyle=orthogonalEdgeStyle;rounded=0;orthogonalLoop=1;jettySize=auto;html=1;exitX=1;exitY=0.5;exitDx=0;exitDy=0;entryX=0.858;entryY=1.017;entryDx=0;entryDy=0;entryPerimeter=0;endArrow=none;endFill=0;" parent="1" source="1OLOJ9Kabhmj-WydWykV-103" target="1OLOJ9Kabhmj-WydWykV-7" edge="1">
          <mxGeometry relative="1" as="geometry" />
        </mxCell>
        <mxCell id="1OLOJ9Kabhmj-WydWykV-109" value="(0,N)" style="text;html=1;strokeColor=none;fillColor=none;align=center;verticalAlign=middle;whiteSpace=wrap;rounded=0;" parent="1" vertex="1">
          <mxGeometry x="160" y="330" width="60" height="20" as="geometry" />
        </mxCell>
        <mxCell id="1OLOJ9Kabhmj-WydWykV-110" value="(1,N)" style="text;html=1;strokeColor=none;fillColor=none;align=center;verticalAlign=middle;whiteSpace=wrap;rounded=0;" parent="1" vertex="1">
          <mxGeometry x="580" y="325" width="60" height="20" as="geometry" />
        </mxCell>
        <mxCell id="1OLOJ9Kabhmj-WydWykV-111" style="edgeStyle=orthogonalEdgeStyle;rounded=0;orthogonalLoop=1;jettySize=auto;html=1;exitX=0;exitY=0.5;exitDx=0;exitDy=0;endArrow=none;endFill=0;" parent="1" source="1OLOJ9Kabhmj-WydWykV-51" edge="1">
          <mxGeometry relative="1" as="geometry">
            <mxPoint x="667" y="270" as="targetPoint" />
            <Array as="points">
              <mxPoint x="600" y="325" />
              <mxPoint x="600" y="285" />
              <mxPoint x="667" y="285" />
            </Array>
          </mxGeometry>
        </mxCell>
        <mxCell id="1OLOJ9Kabhmj-WydWykV-115" value="(1,N)" style="text;html=1;strokeColor=none;fillColor=none;align=center;verticalAlign=middle;whiteSpace=wrap;rounded=0;" parent="1" vertex="1">
          <mxGeometry x="675" y="325" width="60" height="20" as="geometry" />
        </mxCell>
        <mxCell id="1OLOJ9Kabhmj-WydWykV-116" value="N:N" style="text;html=1;strokeColor=none;fillColor=none;align=center;verticalAlign=middle;whiteSpace=wrap;rounded=0;" parent="1" vertex="1">
          <mxGeometry x="630" y="292.5" width="60" height="20" as="geometry" />
        </mxCell>
        <mxCell id="1OLOJ9Kabhmj-WydWykV-118" value="(1,1)" style="text;html=1;strokeColor=none;fillColor=none;align=center;verticalAlign=middle;whiteSpace=wrap;rounded=0;" parent="1" vertex="1">
          <mxGeometry x="730" y="300" width="60" height="30" as="geometry" />
        </mxCell>
        <mxCell id="1OLOJ9Kabhmj-WydWykV-119" value="(0,N)" style="text;html=1;strokeColor=none;fillColor=none;align=center;verticalAlign=middle;whiteSpace=wrap;rounded=0;" parent="1" vertex="1">
          <mxGeometry x="370" y="220" width="60" height="30" as="geometry" />
        </mxCell>
        <mxCell id="1OLOJ9Kabhmj-WydWykV-120" value="(1,N)" style="text;html=1;strokeColor=none;fillColor=none;align=center;verticalAlign=middle;whiteSpace=wrap;rounded=0;" parent="1" vertex="1">
          <mxGeometry x="483.25" y="220" width="60" height="30" as="geometry" />
        </mxCell>
        <mxCell id="1OLOJ9Kabhmj-WydWykV-121" value="N:N" style="text;html=1;strokeColor=none;fillColor=none;align=center;verticalAlign=middle;whiteSpace=wrap;rounded=0;" parent="1" vertex="1">
          <mxGeometry x="430" y="200" width="60" height="30" as="geometry" />
        </mxCell>
        <mxCell id="1OLOJ9Kabhmj-WydWykV-122" value="(0,N)" style="text;html=1;strokeColor=none;fillColor=none;align=center;verticalAlign=middle;whiteSpace=wrap;rounded=0;" parent="1" vertex="1">
          <mxGeometry x="373.25" y="270" width="60" height="30" as="geometry" />
        </mxCell>
        <mxCell id="1OLOJ9Kabhmj-WydWykV-123" value="(1,N)" style="text;html=1;strokeColor=none;fillColor=none;align=center;verticalAlign=middle;whiteSpace=wrap;rounded=0;" parent="1" vertex="1">
          <mxGeometry x="483.25" y="270" width="60" height="30" as="geometry" />
        </mxCell>
        <mxCell id="1OLOJ9Kabhmj-WydWykV-124" value="N:N" style="text;html=1;strokeColor=none;fillColor=none;align=center;verticalAlign=middle;whiteSpace=wrap;rounded=0;" parent="1" vertex="1">
          <mxGeometry x="430" y="255" width="60" height="30" as="geometry" />
        </mxCell>
        <mxCell id="1OLOJ9Kabhmj-WydWykV-126" value="(1,N)" style="text;html=1;strokeColor=none;fillColor=none;align=center;verticalAlign=middle;whiteSpace=wrap;rounded=0;" parent="1" vertex="1">
          <mxGeometry x="260" y="330" width="60" height="20" as="geometry" />
        </mxCell>
        <mxCell id="1OLOJ9Kabhmj-WydWykV-127" value="N:N" style="text;html=1;strokeColor=none;fillColor=none;align=center;verticalAlign=middle;whiteSpace=wrap;rounded=0;" parent="1" vertex="1">
          <mxGeometry x="210" y="287.5" width="60" height="30" as="geometry" />
        </mxCell>
        <mxCell id="1OLOJ9Kabhmj-WydWykV-128" value="(0,N)" style="text;html=1;strokeColor=none;fillColor=none;align=center;verticalAlign=middle;whiteSpace=wrap;rounded=0;" parent="1" vertex="1">
          <mxGeometry x="373.25" y="160" width="60" height="30" as="geometry" />
        </mxCell>
        <mxCell id="1OLOJ9Kabhmj-WydWykV-129" value="(1,N)" style="text;html=1;strokeColor=none;fillColor=none;align=center;verticalAlign=middle;whiteSpace=wrap;rounded=0;" parent="1" vertex="1">
          <mxGeometry x="490" y="160" width="60" height="30" as="geometry" />
        </mxCell>
        <mxCell id="1OLOJ9Kabhmj-WydWykV-130" value="N:N" style="text;html=1;strokeColor=none;fillColor=none;align=center;verticalAlign=middle;whiteSpace=wrap;rounded=0;" parent="1" vertex="1">
          <mxGeometry x="429" y="150" width="60" height="30" as="geometry" />
        </mxCell>
        <mxCell id="1OLOJ9Kabhmj-WydWykV-131" value="(1,N)" style="text;html=1;strokeColor=none;fillColor=none;align=center;verticalAlign=middle;whiteSpace=wrap;rounded=0;" parent="1" vertex="1">
          <mxGeometry x="835" y="300" width="60" height="30" as="geometry" />
        </mxCell>
        <mxCell id="1OLOJ9Kabhmj-WydWykV-132" value="1:N" style="text;html=1;strokeColor=none;fillColor=none;align=center;verticalAlign=middle;whiteSpace=wrap;rounded=0;" parent="1" vertex="1">
          <mxGeometry x="785" y="287.5" width="60" height="30" as="geometry" />
        </mxCell>
        <mxCell id="1OLOJ9Kabhmj-WydWykV-139" style="edgeStyle=orthogonalEdgeStyle;rounded=0;orthogonalLoop=1;jettySize=auto;html=1;exitX=0.5;exitY=1;exitDx=0;exitDy=0;endArrow=none;endFill=0;" parent="1" source="1OLOJ9Kabhmj-WydWykV-15" edge="1">
          <mxGeometry relative="1" as="geometry">
            <mxPoint x="687" y="210" as="targetPoint" />
          </mxGeometry>
        </mxCell>
      </root>
    </mxGraphModel>
  </diagram>
</mxfile>
